<?xml version="1.0" encoding="UTF-8"?>
<svg id="Layer_2" data-name="Layer 2" xmlns="http://www.w3.org/2000/svg" xmlns:xlink="http://www.w3.org/1999/xlink" viewBox="0 0 427.76 297.1">
  <defs>
    <style>
      .cls-1, .cls-2, .cls-3, .cls-4 {
        fill-rule: evenodd;
      }

      .cls-1, .cls-5 {
        fill: #8dc63f;
      }

      .cls-6 {
        font-family: NanumBarunGothicBold, NanumBarunGothicBold;
        font-size: 20px;
        stroke-miterlimit: 10;
        stroke-width: 1.42px;
      }

      .cls-6, .cls-4 {
        fill: #fff;
      }

      .cls-6, .cls-7 {
        stroke: #231f20;
      }

      .cls-8 {
        font-size: 29px;
      }

      .cls-8, .cls-9, .cls-10, .cls-11, .cls-12, .cls-13 {
        fill: #231f20;
        font-family: NanumBarunGothic, NanumBarunGothic;
      }

      .cls-14 {
        clip-path: url(#clippath-4);
      }

      .cls-2 {
        fill: #388841;
      }

      .cls-3 {
        fill: #89bf44;
      }

      .cls-15, .cls-7, .cls-16 {
        fill: none;
      }

      .cls-7 {
        stroke-linecap: round;
        stroke-linejoin: round;
      }

      .cls-17 {
        clip-path: url(#clippath-1);
      }

      .cls-18 {
        clip-path: url(#clippath-5);
      }

      .cls-19 {
        clip-path: url(#clippath-3);
      }

      .cls-20 {
        fill: #398841;
      }

      .cls-9 {
        font-size: 29px;
      }

      .cls-16 {
        stroke: #89bf44;
        stroke-width: 2px;
      }

      .cls-10 {
        font-size: 32px;
      }

      .cls-11 {
        font-size: 32px;
      }

      .cls-12 {
        font-size: 32px;
      }

      .cls-21 {
        clip-path: url(#clippath-2);
      }

      .cls-13 {
        font-size: 29px;
      }

      .cls-22 {
        clip-path: url(#clippath);
      }
    </style>
    <clipPath id="clippath">
      <rect class="cls-15" x="19.68" y="21.5" width="390.65" height="275.6"/>
    </clipPath>
    <clipPath id="clippath-1">
      <rect class="cls-15" x="19.68" y="21.5" width="390.65" height="275.6"/>
    </clipPath>
    <clipPath id="clippath-2">
      <rect class="cls-15" x="19.68" y="21.5" width="390.65" height="275.6"/>
    </clipPath>
    <clipPath id="clippath-3">
      <rect class="cls-15" x="19.68" y="21.5" width="390.65" height="275.6"/>
    </clipPath>
    <clipPath id="clippath-4">
      <rect class="cls-15" x="19.68" y="21.5" width="390.65" height="275.6"/>
    </clipPath>
    <clipPath id="clippath-5">
      <rect class="cls-15" x="19.68" y="21.5" width="390.65" height="275.6"/>
    </clipPath>
  </defs>
  <g id="_레이어_1" data-name="레이어 1">
    <g class="cls-22">
      <path class="cls-4" d="M402.5,147.57c0,67.5-83.95,122.22-187.5,122.22S27.5,215.07,27.5,147.57,111.45,25.35,215,25.35s187.5,54.72,187.5,122.22"/>
      <ellipse class="cls-16" cx="215" cy="147.57" rx="187.5" ry="122.22"/>
      <path class="cls-1" d="M280.49,121.52c4.73,0,8.56-3.75,8.56-8.37s-3.83-8.37-8.56-8.37-8.56,3.76-8.56,8.37,3.85,8.37,8.56,8.37"/>
      <path class="cls-1" d="M307.71,138.18c1.81,2.68,3.54,5.24,4.96,7.36,7.52,3.59,12.74,11.25,12.74,20.13,0,12.31-10.01,22.33-22.32,22.33s-22.33-10.02-22.33-22.33c0-.46.04-.93.08-1.37h-1.18c-.23.37-1.91,3.08-3.99,6.47,2.39,12.96,13.77,22.81,27.42,22.81,15.38,0,27.9-12.52,27.9-27.91,0-13.81-10.08-25.28-23.28-27.49"/>
      <path class="cls-1" d="M265.78,184.58l13.21-21.46h28.62c3.3,0,11.42-5.65,7.29-12.12,0,0-18.02-26.97-19.53-28.48-1.52-1.5-6.2-2.9-10.33-.14-3.24,2.17-10.03,17.46-10.03,17.46,0,0-7.71.14-10.06,0-2.32-.13-3.02,7.85-.13,7.85h14.04l5.23-9.07,10.87,16.64h-22.15l-17.34,29.32c-.98,1.78-.82,4.37,2.58,4.37s5.46-1.48,7.74-4.37"/>
      <rect class="cls-5" x="255.41" y="143.4" width="24.94" height="6.92"/>
      <polygon class="cls-1" points="258.18 143.78 255.49 145.67 240.97 124.93 243.66 123.03 258.18 143.78"/>
      <path class="cls-3" d="M138.81,211.98c21.97,8.27,48.98,13.1,77.8,13.1,75.99,0,137.67-33.46,137.67-74.98,0-21.17-19.55-48.78-69.34-48.78-36.08,0-67.53,15.92-67.53,35.48,0,3.43,2.01,7.26,4.64,9.88,4.03,4.64,5.24,10.28,5.24,15.52,0,23.99-35.68,43.34-79.62,43.34-29.03,0-55.63-8.06-68.74-21.16-10.48-10.48-13.91-22.37-13.91-34.27,0-45.76,67.93-82.85,151.58-82.85s151.78,37.09,151.78,82.85-67.93,82.84-151.78,82.84c-33.06,0-63.69-5.85-88.49-15.52l10.69-5.45Z"/>
      <path class="cls-2" d="M137.81,205.2c21.97,8.27,48.98,13.1,77.8,13.1,75.99,0,137.67-33.46,137.67-74.98,0-21.17-19.55-48.78-69.34-48.78-36.08,0-67.53,15.92-67.53,35.48,0,3.43,2.01,7.26,4.64,9.88,4.03,4.64,5.24,10.28,5.24,15.52,0,23.99-35.68,43.34-79.62,43.34-29.03,0-55.63-8.06-68.74-21.16-10.48-10.48-13.91-22.37-13.91-34.27,0-45.76,67.93-82.85,151.58-82.85s151.78,37.09,151.78,82.85-67.93,82.84-151.78,82.84c-33.06,0-63.69-5.85-88.49-15.52l10.69-5.44Z"/>
    </g>
    <text class="cls-11" transform="translate(130.4 248.25) rotate(16.14)"><tspan x="0" y="0">W</tspan></text>
    <g class="cls-17">
      <polygon class="cls-7" points="149.79 255.08 152.89 255.98 165.49 234.4 162.91 233.66 152.25 252.29 152.98 230.78 150.18 229.98 139.39 248.37 140.25 227.1 137.55 226.32 136.77 251.31 139.81 252.19 150.5 234 149.79 255.08"/>
    </g>
    <text class="cls-11" transform="translate(161.47 256.82) rotate(9.75)"><tspan x="0" y="0">E</tspan></text>
    <g class="cls-21">
      <polygon class="cls-7" points="179.2 258.56 167.18 256.5 168.81 247.04 179.97 248.96 180.38 246.62 169.21 244.7 170.47 237.39 182.48 239.45 182.89 237.09 168.1 234.54 163.99 258.45 178.78 260.99 179.2 258.56"/>
    </g>
    <text class="cls-10" transform="translate(181.45 260.19) rotate(5.09)"><tspan x="0" y="0">B</tspan></text>
    <g class="cls-19">
      <path class="cls-7" d="M195.79,262.04c1.05-.31,1.93-.78,2.66-1.38.73-.61,1.29-1.33,1.68-2.15.39-.82.63-1.67.71-2.54.07-.83,0-1.61-.19-2.33-.2-.72-.52-1.37-.95-1.93-.43-.56-.97-1.04-1.61-1.44-.64-.4-1.37-.69-2.19-.87v-.06c1.38-.26,2.49-.84,3.34-1.74.85-.9,1.34-2.02,1.46-3.36.07-.74-.02-1.46-.26-2.14-.24-.69-.64-1.3-1.19-1.84-.55-.54-1.25-.99-2.08-1.36-.83-.36-1.82-.59-2.94-.7l-8.06-.72-2.15,24.13,8.16.73c1.36.12,2.56.02,3.61-.29ZM196.64,252c.88.91,1.25,2.14,1.12,3.67-.13,1.45-.68,2.55-1.66,3.32-.98.77-2.33,1.08-4.05.92l-5-.45.85-9.5,4.43.39c2,.18,3.44.72,4.32,1.64ZM196.76,241.63c.74.62,1.05,1.57.94,2.85-.13,1.47-.68,2.46-1.63,2.97-.96.51-2.21.7-3.76.56l-4.21-.38.67-7.55,4.53.4c1.57.14,2.73.52,3.46,1.14Z"/>
    </g>
    <text class="cls-12" transform="translate(202.18 261.91) rotate(1.97)"><tspan x="0" y="0"> </tspan></text>
    <text class="cls-8" transform="translate(210.05 262.41) rotate(-1.7)"><tspan x="0" y="0">접</tspan></text>
    <g class="cls-14">
      <path class="cls-7" d="M218.6,263.44l-.11-3.59,11.65-.35.11,3.6-11.65.35ZM232.48,254.93l-2.46.07.07,2.44-11.65.35-.07-2.29-2.46.07.3,10.12,16.58-.49-.3-10.26ZM229.76,247.32l.18,6.17,2.49-.07-.43-14.32-2.49.07.17,5.91-4.67.14.07,2.23,4.67-.14ZM223.06,244.14c.48-1.15.77-2.36.86-3.64-1.35.08-2.65.14-3.88.17-1.24.04-2.46.07-3.68.11l-4.44.13.06,2.14,2.64-.08c1.04-.03,2.09-.07,3.13-.11,1.04-.04,2.07-.09,3.07-.16-.24.99-.69,1.98-1.33,2.97-.65.99-1.44,1.92-2.37,2.81-.93.89-1.98,1.7-3.13,2.44-1.16.74-2.37,1.35-3.63,1.83l1.7,1.72c1.2-.48,2.5-1.18,3.9-2.1,1.39-.92,2.68-2.02,3.86-3.29.88.9,1.84,1.73,2.9,2.47,1.06.74,2.13,1.38,3.23,1.91l1.48-1.87c-.53-.22-1.07-.48-1.63-.78-.56-.3-1.12-.63-1.67-1-.55-.36-1.08-.75-1.59-1.16-.51-.41-.95-.83-1.33-1.27.74-1.03,1.35-2.11,1.83-3.26Z"/>
    </g>
    <text class="cls-9" transform="translate(237.4 261.54) rotate(-7.7)"><tspan x="0" y="0">근</tspan></text>
    <g class="cls-18">
      <path class="cls-7" d="M259.32,259.86l-14.92,2.02-.89-6.58-2.47.33,1.18,8.74,17.39-2.35-.29-2.16ZM236.26,250.95l.29,2.13,25.03-3.39-.29-2.13-4.87.66c-.02-.7-.04-1.48-.08-2.34-.04-.86-.09-1.77-.15-2.73-.06-.96-.14-1.95-.22-2.97-.09-1.02-.19-2.04-.31-3.06l-17.13,2.32.29,2.16,14.6-1.97c.19,1.44.33,2.92.4,4.45.07,1.53.12,3.03.14,4.49l-17.7,2.39Z"/>
    </g>
    <text class="cls-13" transform="translate(264.53 257.81) rotate(-14.14)"><tspan x="0" y="0">성</tspan></text>
    <path class="cls-7" d="M283.86,253.02c-.15.42-.43.82-.86,1.22-.43.4-1,.77-1.72,1.12-.72.35-1.59.66-2.62.92-1.01.25-1.91.4-2.7.43-.79.03-1.47-.03-2.03-.17-.57-.15-1.01-.37-1.33-.67-.32-.3-.53-.63-.63-1.01-.1-.39-.08-.8.07-1.21.14-.41.43-.83.86-1.23.43-.41.99-.79,1.7-1.15.71-.36,1.57-.66,2.58-.92,1.03-.26,1.95-.4,2.75-.42.8-.02,1.49.04,2.05.2.57.16,1.01.38,1.34.68.32.3.54.64.63,1.04.09.38.07.77-.08,1.19ZM285.43,249.34c-.51-.53-1.18-.93-2-1.2-.82-.27-1.8-.4-2.93-.38-1.13.02-2.4.2-3.8.55-1.4.35-2.6.79-3.6,1.31-.99.52-1.79,1.09-2.39,1.72-.6.63-1,1.29-1.2,1.99-.2.7-.21,1.4-.03,2.12.18.71.52,1.33,1.03,1.85.51.52,1.18.92,2,1.19.82.27,1.8.4,2.92.38,1.12-.01,2.38-.2,3.79-.55s2.61-.79,3.61-1.31c1-.52,1.8-1.09,2.41-1.71.6-.62,1-1.28,1.2-1.98.2-.7.21-1.41.03-2.12-.18-.71-.53-1.33-1.04-1.86ZM280.47,238.56l1.95,7.76,2.42-.61-3.88-15.41-2.42.61,1.38,5.48-5.2,1.31.55,2.17,5.2-1.31ZM266.93,234.56c.86,2.78.94,5.3.24,7.56-.69,2.27-2.08,4.39-4.15,6.37l2.06,1.18c1.21-1.14,2.21-2.4,3.01-3.76.8-1.37,1.36-2.85,1.67-4.44,1.03,1.04,2.19,1.92,3.49,2.65,1.3.73,2.71,1.27,4.24,1.62l1.06-2.09c-1.77-.39-3.34-.99-4.71-1.79-1.37-.8-2.63-1.84-3.79-3.13,0-.76-.04-1.54-.15-2.34-.1-.8-.27-1.62-.5-2.46l-2.47.62Z"/>
    <path class="cls-20" d="M94.85,75.4c-1.39-3.47-2.75-5.91-3.94-7.9l-8.3,4.97-1.52-2.54,11.43-6.84,1.09,1.81c1.29,2.16,2.91,4.87,4.51,8.91l-3.27,1.59ZM94.78,79.22c2.1-1.36,4.19-2.8,6.07-4.26l1.54,2.2c-4.05,3.47-8.96,6.54-12.8,8.88l-1.85-2.44c1.23-.74,2.58-1.54,3.97-2.41l-3.94-6.58,3.14-1.88,3.88,6.49ZM106.25,67.66l-2.99,1.79,6.37,10.65-3.18,1.91-13.34-22.29,3.18-1.91,5.37,8.98,2.99-1.79,1.59,2.66Z"/>
    <path class="cls-20" d="M124.25,51.32l-14.23,5.47-1.05-2.74,5.35-2.06-.87-2.26,3.49-1.34.87,2.26,5.38-2.07,1.05,2.74ZM120.86,63.74c-3.46,1.33-6.63.46-7.65-2.19-1.01-2.63.76-5.4,4.22-6.73,3.49-1.34,6.63-.46,7.64,2.17,1.02,2.66-.72,5.41-4.21,6.75M119.84,61.11c1.55-.6,2.39-1.61,1.92-2.85-.46-1.21-1.77-1.4-3.32-.81-1.58.6-2.39,1.61-1.93,2.82.48,1.24,1.76,1.44,3.33.83M117.28,66.98l16.12-6.19,3.1,8.08-3.46,1.33-2.03-5.29-12.65,4.86-1.07-2.79ZM133.88,52.48l-3.2,1.23,2.34,6.08-3.46,1.33-5.84-15.19,3.46-1.33,2.4,6.24,3.2-1.23,1.1,2.87Z"/>
    <path class="cls-20" d="M153.2,40.2c1.82,7.74.71,14.67-7.22,21.11l-2.56-2.41c5.7-4.62,7.56-9.23,6.76-14.95l-8.4,1.98-.68-2.88,12.09-2.85ZM160.08,35.8l5.94,25.28-3.64.86-5.95-25.28,3.64-.86Z"/>
    <path class="cls-20" d="M185.83,45.36l.19,1.65,6.98-.8.77,6.7-14.08,1.61.17,1.46,14.75-1.68.32,2.77-18.41,2.1-.77-6.78,14.11-1.61-.16-1.4-14.14,1.61-.31-2.75,7.1-.81-.19-1.65-9.75,1.11-.33-2.91,23.25-2.65.33,2.91-9.81,1.12ZM192.8,40.54c-4.5.03-7.87-1.29-9.76-3.46-1.35,2.54-4.37,4.59-8.76,5.57l-1.52-2.64c5.72-1.22,8.21-4.14,7.93-6.64l-.05-.48,3.8-.43.06.48c.29,2.49,3.38,4.78,9.22,4.68l-.91,2.91Z"/>
    <path class="cls-20" d="M217,45.35c-2.82-.9-4.78-2.72-5.92-4.99-1.1,2.63-3.13,4.77-6.13,5.81l-1.91-2.91c4.09-1.48,5.94-4.79,6.03-8.04l-5.09.05-.03-2.99,13.91-.13.03,2.99-5.03.04c.14,2.96,1.97,5.99,5.91,7.25l-1.77,2.92ZM225.01,51.54c.03,3.16-3.33,5.02-8.81,5.07-5.51.05-8.9-1.75-8.93-4.91-.03-3.16,3.33-5.02,8.83-5.07,5.48-.05,8.87,1.75,8.9,4.91M221.3,51.57c-.01-1.47-1.79-2.16-5.16-2.12-3.4.03-5.17.75-5.15,2.22.01,1.47,1.79,2.15,5.19,2.12,3.37-.03,5.14-.75,5.12-2.22M221.05,36.82l-.06-6.26,3.71-.03.14,15.45-3.71.03-.06-6.17-3.88.04-.03-3.02,3.88-.04Z"/>
    <path class="cls-20" d="M256.79,53.14l-.3,3-23.33-2.35.3-3,9.79.99.48-4.74-7.33-.74,1.37-13.5,3.66.37-.41,4.01,11.02,1.11.41-4.01,3.64.37-1.37,13.5-7.3-.74-.48,4.74,9.85.99ZM240.37,43.72l11.02,1.11.37-3.62-11.02-1.11-.37,3.62Z"/>
    <path class="cls-20" d="M287.72,52.83l-.62,2.84-22.87-5.03.62-2.84,9.61,2.12.35-1.57-6.75-1.49,2.39-10.85,17.4,3.83-.61,2.75-13.81-3.04-.29,1.32,13.23,2.91-.58,2.64-13.23-2.91-.3,1.38,14,3.08-.61,2.75-7.22-1.59-.35,1.57,9.64,2.12ZM283.24,60.36c-.59,2.7-4.12,3.45-9.7,2.22-5.55-1.22-8.44-3.39-7.84-6.09.6-2.73,4.13-3.45,9.67-2.23,5.57,1.23,8.47,3.37,7.87,6.09M279.59,59.56c.23-1.05-1.29-1.84-4.81-2.62-3.49-.77-5.2-.68-5.43.36-.23,1.05,1.29,1.87,4.77,2.64,3.51.77,5.24.66,5.47-.38"/>
    <path class="cls-20" d="M312.8,71.13l-1.02,2.78-16.8-6.13,2.87-7.87,3.49,1.27-1.86,5.09,13.31,4.86ZM307.7,61.25c-2.36-1.91-3.55-4.39-3.77-7.05-2.01,2.06-4.63,3.35-7.82,3.3l-.75-3.43c4.54.1,7.54-2.68,8.72-5.91l.87-2.39,3.54,1.29-.87,2.38c-1.17,3.21-.62,6.95,2.87,9.67l-2.79,2.13ZM313.43,67.51l-3.51-1.28,6.49-17.77,3.51,1.28-6.49,17.77Z"/>
    <path class="cls-20" d="M342.48,81.64l-8.65-4.91-4,7.04-3.23-1.83,4-7.04-8.51-4.83,1.46-2.57,20.39,11.58-1.46,2.57ZM342.73,75.56l-15.64-8.89,5.69-10.01,3.2,1.82-1.46,2.57,9.27,5.26,1.46-2.58,3.18,1.81-5.69,10ZM342.34,68.85l-9.26-5.26-1.32,2.33,9.26,5.26,1.32-2.33Z"/>
    <polygon class="cls-4" points="143.72 171.23 131.42 171.23 129.67 130.81 103.6 171.23 91.28 171.23 91.17 104.61 106.56 104.61 105.59 146.62 132.04 104.61 143.09 104.61 144.24 146.62 168.67 104.61 184.06 104.61 143.72 171.23"/>
    <path class="cls-4" d="M194.13,171.76l.23-11.82h-18.6l-6.52,11.82h-17.84l40.16-66.79h17.6l2.82,66.79h-17.85ZM195.27,124.65l-13.71,24.31h13.42l.29-24.31Z"/>
    <rect class="cls-15" x="19.68" y="21.5" width="390.65" height="275.6"/>
  </g>
  <g id="_나눔바른고딕" data-name="나눔바른고딕">
    <text class="cls-6" transform="translate(28.79 219.83) rotate(45.89) scale(.95 1)"><tspan x="0" y="0">웹</tspan></text>
    <text class="cls-6" transform="translate(42.86 234.22) rotate(39.02) scale(.95 1)"><tspan x="0" y="0">와</tspan></text>
    <text class="cls-6" transform="translate(58.46 246.76) rotate(33.03) scale(.95 1)"><tspan x="0" y="0">치</tspan></text>
    <text class="cls-6" transform="translate(75.05 257.29) rotate(29.31) scale(.95 1)"><tspan x="0" y="0">(</tspan></text>
    <text class="cls-6" transform="translate(81.65 261.14) rotate(26.12) scale(.95 1)"><tspan x="0" y="0">W</tspan></text>
    <text class="cls-6" transform="translate(97.5 268.78) rotate(22.66) scale(.95 1)"><tspan x="0" y="0">e</tspan></text>
    <text class="cls-6" transform="translate(107.85 273.1) rotate(20.04) scale(.95 1)"><tspan x="0" y="0">b</tspan></text>
    <text class="cls-6" transform="translate(119.15 277.29) rotate(16.84) scale(.95 1)"><tspan x="0" y="0">W</tspan></text>
    <text class="cls-6" transform="translate(135.94 282.26) rotate(13.87) scale(.95 1)"><tspan x="0" y="0">a</tspan></text>
    <text class="cls-6" transform="translate(146.65 284.87) rotate(12.14) scale(.95 1)"><tspan x="0" y="0">t</tspan></text>
    <text class="cls-6" transform="translate(152.74 286.21) rotate(10.43) scale(.95 1)"><tspan x="0" y="0">c</tspan></text>
    <text class="cls-6" transform="translate(163.79 288.24) rotate(8.26) scale(.95 1)"><tspan x="0" y="0">h</tspan></text>
    <text class="cls-6" transform="translate(174.85 289.81) rotate(6.5) scale(.95 1)"><tspan x="0" y="0">)</tspan></text>
    <text class="cls-6" transform="translate(182.18 290.64) rotate(5.2) scale(.95 1)"><tspan x="0" y="0"> </tspan></text>
    <text class="cls-6" transform="translate(188.74 291.27) rotate(3.57) scale(.95 1)"><tspan x="0" y="0">2</tspan></text>
    <text class="cls-6" transform="translate(200 291.96) rotate(1.51) scale(.95 1)"><tspan x="0" y="0">0</tspan></text>
    <text class="cls-6" transform="translate(211.25 292.27) rotate(-.63) scale(.95 1)"><tspan x="0" y="0">2</tspan></text>
    <text class="cls-6" transform="translate(222.48 292.15) rotate(-2.54) scale(.95 1)"><tspan x="0" y="0">5</tspan></text>
    <text class="cls-6" transform="translate(233.66 291.62) rotate(-4.17) scale(.95 1)"><tspan x="0" y="0">.</tspan></text>
    <text class="cls-6" transform="translate(240.27 291.17) rotate(-5.82) scale(.95 1)"><tspan x="0" y="0">0</tspan></text>
    <text class="cls-6" transform="translate(251.49 290.01) rotate(-7.95) scale(.95 1)"><tspan x="0" y="0">4</tspan></text>
    <text class="cls-6" transform="translate(262.59 288.43) rotate(-9.65) scale(.95 1)"><tspan x="0" y="0">.</tspan></text>
    <text class="cls-6" transform="translate(269.16 287.34) rotate(-11.4) scale(.95 1)"><tspan x="0" y="0">1</tspan></text>
    <text class="cls-6" transform="translate(280.23 285.1) rotate(-13.65) scale(.95 1)"><tspan x="0" y="0">7</tspan></text>
    <text class="cls-6" transform="translate(291.3 282.46) rotate(-16.43) scale(.95 1)"><tspan x="0" y="0">~</tspan></text>
    <text class="cls-6" transform="translate(306.18 278.01) rotate(-19.31) scale(.95 1)"><tspan x="0" y="0">2</tspan></text>
    <text class="cls-6" transform="translate(316.89 274.25) rotate(-21.85) scale(.95 1)"><tspan x="0" y="0">0</tspan></text>
    <text class="cls-6" transform="translate(327.44 270.01) rotate(-24.5) scale(.95 1)"><tspan x="0" y="0">2</tspan></text>
    <text class="cls-6" transform="translate(337.78 265.29) rotate(-27.29) scale(.95 1)"><tspan x="0" y="0">6</tspan></text>
    <text class="cls-6" transform="translate(347.82 260.05) rotate(-29.61) scale(.95 1)"><tspan x="0" y="0">.</tspan></text>
    <text class="cls-6" transform="translate(353.69 256.76) rotate(-32.05) scale(.95 1)"><tspan x="0" y="0">0</tspan></text>
    <text class="cls-6" transform="translate(363.41 250.67) rotate(-35.32) scale(.95 1)"><tspan x="0" y="0">4</tspan></text>
    <text class="cls-6" transform="translate(372.65 244.04) rotate(-38.08) scale(.95 1)"><tspan x="0" y="0">.</tspan></text>
    <text class="cls-6" transform="translate(378.06 239.87) rotate(-41.02) scale(.95 1)"><tspan x="0" y="0">1</tspan></text>
    <text class="cls-6" transform="translate(386.77 232.27) rotate(-45.02) scale(.95 1)"><tspan x="0" y="0">6</tspan></text>
  </g>
</svg>