<svg width="100" height="100" viewBox="0 0 100 100" fill="none" xmlns="http://www.w3.org/2000/svg">
<path d="M96.5359 44C98.6795 47.7128 98.6795 52.2872 96.5359 56L78.4641 87.3013C76.3205 91.0141 72.359 93.3013 68.0718 93.3013L31.9282 93.3013C27.641 93.3013 23.6795 91.0141 21.5359 87.3013L3.46411 56C1.32051 52.2872 1.32051 47.7128 3.46411 44L21.5359 12.6987C23.6795 8.98591 27.641 6.69873 31.9282 6.69873L68.0718 6.69873C72.359 6.69873 76.3205 8.98592 78.4641 12.6987L96.5359 44Z" fill="#05AFF2"/>
<path d="M90 50L70 84.641L30 84.641L10 50L30 15.359L70 15.359L90 50Z" fill="black"/>
</svg>
