<?xml version="1.0" encoding="UTF-8"?>
<svg id="_레이어_2" data-name="레이어 2" xmlns="http://www.w3.org/2000/svg" viewBox="0 0 514 166.77">
  <defs>
    <style>
      .cls-1 {
        fill: #1e4200;
        stroke-width: 0px;
      }
    </style>
  </defs>
  <g id="_레이어_1-2" data-name="레이어 1">
    <g>
      <path class="cls-1" d="m46.32,129.96c-13.13,0-23.51-7.24-28.82-19.98l-12.64,18H0V9.4h19.54v48.85c7.32-6.88,16.9-10.77,26.77-10.77,18.18,0,39.86,7.16,39.86,41.25,0,34.09-21.68,41.25-39.86,41.25Zm-26.77-25.59c2.82,9.73,9.61,21.31,25.9,21.72,13.81,0,21.32-5.96,21.32-37.38s-7.52-37.38-21.38-37.38c-9.82.26-19.21,4.79-25.84,12.43v40.61Z"/>
      <rect class="cls-1" x="96.3" y="49.72" width="19.54" height="78.27"/>
      <path class="cls-1" d="m165.69,129.95c-25.7,0-39.86-14.62-39.86-41.18s14.16-41.29,39.86-41.29,39.2,14,39.82,39.46h.02l.02,1.34v2.47h-60.14c.32,24.73,6.88,35.3,21.79,35.3,15.76-.71,27.24-12.65,27.24-28.41v-1.34h3.81v1.34c0,18.41-14,32.3-32.56,32.3Zm20.28-43.01c-.34-23.33-7.34-35.65-20.28-35.65s-19.93,12.32-20.28,35.65h40.55Z"/>
      <path class="cls-1" d="m280.56,127.98v-39.01c0-30.99-7.21-36.9-21.4-37.38-16.23.42-23.01,11.99-25.82,21.7v54.69h-19.54V49.71h4.86l12.64,18c5.31-12.74,15.69-19.98,28.82-19.98,18.18,0,39.86,7.16,39.86,41.24v39.01h-19.41Z"/>
      <path class="cls-1" d="m349.45,166.77c-13.74,0-26.58-5.26-34.34-14.06l-.89-1.01,2.86-2.53.89,1.01c7.04,7.99,18.81,12.77,31.47,12.77,17.75,0,24.98-10.52,24.98-36.32v-7.19c-7.32,6.88-16.9,10.77-26.78,10.77-18.18,0-39.86-7.16-39.86-41.25s21.68-41.25,39.86-41.25c13.13,0,23.51,7.24,28.82,19.98l12.64-18h4.86v76.93c0,25.88-15.81,40.14-44.53,40.14Zm-.9-115.18c-13.84,0-21.33,5.97-21.33,37.38s7.52,37.38,21.4,37.38c9.8-.26,19.19-4.79,25.82-12.43v-40.61c-2.82-9.72-9.6-21.29-25.88-21.72Z"/>
      <rect class="cls-1" x="405.88" y="9.4" width="19.55" height="118.59"/>
      <path class="cls-1" d="m474.14,130.09c-25.7,0-39.86-14.65-39.86-41.25s14.16-41.24,39.86-41.24,39.86,14.65,39.86,41.24c0,26.6-14.16,41.25-39.86,41.25Zm0-78.68c-13.28,0-20.3,12.94-20.3,37.43s7.02,37.43,20.3,37.43,20.3-12.94,20.3-37.43-7.02-37.43-20.3-37.43Z"/>
      <path class="cls-1" d="m123.82,19.65c-12.74,3.06-14.98,5.54-17.75,19.65-2.76-14.1-5.01-16.59-17.75-19.65,12.74-3.06,14.98-5.54,17.75-19.65,2.76,14.1,5.01,16.59,17.75,19.65Z"/>
    </g>
  </g>
</svg>